<svg width="488" height="536" viewBox="0 0 488 536" fill="none" xmlns="http://www.w3.org/2000/svg">
<path d="M410.531 250.572C410.531 250.572 405.488 283.293 400.37 317.888C396.416 344.627 392.294 375.936 390.421 391.104C390.321 391.945 390.221 392.733 390.138 393.466C390.035 394.326 389.937 395.114 389.854 395.825C389.826 396.042 389.804 396.253 389.781 396.457C389.642 397.629 389.511 398.813 389.383 400.002C386.325 428.156 385.306 461.3 385.267 492.363C385.265 494.978 385.267 497.577 385.276 500.158C385.301 506.635 385.365 512.996 385.459 519.169V519.172C385.496 521.726 385.54 524.243 385.587 526.722V526.725C385.674 531.169 385.771 535.494 385.885 539.679C385.902 540.328 385.916 540.98 385.935 541.623V541.626C386.113 548.103 386.311 554.216 386.517 559.863V559.866C386.528 560.158 386.539 560.448 386.55 560.737C386.653 563.653 386.762 566.441 386.876 569.083C386.932 570.442 386.984 571.762 387.037 573.04V573.043C387.14 575.435 387.243 587.401 387.341 597.847C377.422 600.378 367.429 602.667 357.377 604.703C297.78 616.778 236.129 620.086 175.691 614.113C174.099 603.185 172.48 570.568 170.855 563.469C170.855 563.466 170.855 563.467 170.855 563.464C167.162 547.421 163.391 531.4 159.536 515.399C159.534 515.396 159.534 515.393 159.534 515.391C159.534 515.391 159.536 515.391 159.534 515.385C158.203 509.852 156.859 504.321 155.504 498.793C155.078 497.045 154.647 495.299 154.218 493.55C154.221 493.547 154.218 493.547 154.218 493.547C150.347 477.808 146.398 462.09 142.365 446.393C138.748 432.299 135.063 418.219 131.314 404.159V404.156C131.306 404.118 131.292 404.076 131.281 404.04C130.855 402.43 130.424 400.823 129.99 399.211C129.99 399.211 129.992 399.211 129.99 399.208C128.971 395.41 127.95 391.608 126.923 387.81C119.84 361.608 112.532 335.468 104.993 309.389C101.027 295.646 96.9949 281.925 92.904 268.216C92.9012 268.216 92.9012 268.213 92.9012 268.211C92.8984 268.208 92.8984 268.202 92.8984 268.199C91.9411 264.994 90.9865 261.8 90.0208 258.6V258.598C90.4021 258.439 90.8001 258.263 91.2119 258.082C106.271 251.441 144.742 229.717 175.018 214.108C175.285 213.969 175.555 213.833 175.819 213.693C176.354 213.421 176.882 213.148 177.408 212.878C177.934 212.607 178.46 212.337 178.981 212.076C179.245 211.942 179.501 211.808 179.763 211.677C180.28 211.41 180.798 211.151 181.31 210.892C182.075 210.502 182.838 210.121 183.592 209.742C184.594 209.238 185.585 208.745 186.559 208.263C186.801 208.143 187.046 208.024 187.288 207.904C187.53 207.784 187.772 207.667 188.011 207.548C188.251 207.431 188.487 207.314 188.727 207.197C189.127 207.002 189.523 206.807 189.918 206.615C190.46 206.353 190.998 206.094 191.526 205.838C192.442 205.392 193.341 204.966 194.22 204.557C194.273 204.532 194.329 204.507 194.379 204.479C194.766 204.298 195.144 204.119 195.523 203.944C195.551 203.936 195.576 203.922 195.601 203.908C196.001 203.721 196.399 203.537 196.792 203.356C197.212 203.162 197.629 202.972 198.036 202.788C198.242 202.696 198.448 202.605 198.648 202.515C199.207 202.262 199.758 202.02 200.293 201.783C200.721 201.596 201.147 201.41 201.564 201.232C201.751 201.151 201.937 201.073 202.121 200.992C202.722 200.739 203.307 200.494 203.874 200.26C204.178 200.134 204.478 200.015 204.773 199.895C204.985 199.806 205.193 199.722 205.402 199.644H205.405V199.642H205.408C205.53 199.594 205.65 199.547 205.77 199.502C205.803 199.491 205.839 199.475 205.872 199.463C205.906 199.447 205.942 199.433 205.975 199.422C206.226 199.324 206.479 199.229 206.721 199.14C206.844 199.09 206.963 199.048 207.083 199.001C207.103 198.998 207.116 198.993 207.133 198.984C207.136 198.984 207.136 198.984 207.136 198.984C207.15 198.979 207.169 198.973 207.186 198.968C207.206 198.959 207.225 198.948 207.244 198.943C207.264 198.934 207.278 198.929 207.295 198.923C207.514 198.84 207.729 198.764 207.94 198.689C207.96 198.684 207.974 198.678 207.993 198.67C208.024 198.659 208.054 198.65 208.082 198.642C208.099 198.636 208.113 198.631 208.132 198.622C208.26 198.581 208.383 198.533 208.514 198.491C208.516 198.489 208.516 198.491 208.516 198.491C208.586 198.466 208.658 198.441 208.725 198.422C208.859 198.372 208.995 198.33 209.123 198.288C209.129 198.285 209.14 198.283 209.145 198.283C209.212 198.258 209.279 198.238 209.346 198.216C209.496 198.168 209.641 198.121 209.783 198.077C209.874 198.046 209.963 198.018 210.055 197.99C210.08 197.985 210.105 197.979 210.133 197.968C210.194 197.948 210.258 197.932 210.32 197.912C210.35 197.904 210.384 197.893 210.414 197.884H210.417C210.448 197.876 210.475 197.865 210.506 197.857C210.648 197.815 210.787 197.776 210.924 197.737C211.143 197.676 211.36 197.617 211.566 197.567C211.622 197.553 211.678 197.539 211.728 197.531C211.753 197.522 211.775 197.514 211.797 197.511C211.917 197.481 212.037 197.453 212.151 197.428C212.268 197.403 212.382 197.378 212.49 197.358C212.602 197.336 212.71 197.316 212.816 197.297C213.08 197.249 213.35 197.205 213.623 197.155C213.784 197.127 213.949 197.099 214.113 197.068C214.138 197.066 214.166 197.063 214.191 197.057C214.658 196.977 215.143 196.896 215.641 196.81C215.641 196.81 215.643 196.81 215.646 196.81C215.977 196.754 216.317 196.695 216.659 196.64C217.516 196.495 218.41 196.353 219.334 196.205C219.395 196.197 219.459 196.186 219.52 196.177C219.64 196.155 219.759 196.138 219.879 196.119C220.068 196.088 220.266 196.058 220.461 196.027C220.497 196.021 220.53 196.016 220.564 196.007C220.703 195.985 220.836 195.969 220.976 195.946C221.118 195.924 221.259 195.904 221.404 195.882C221.554 195.86 221.705 195.835 221.855 195.813C222.186 195.762 222.52 195.712 222.857 195.662C223.208 195.612 223.561 195.562 223.917 195.506C223.948 195.503 223.976 195.501 224.003 195.498C224.41 195.439 224.822 195.381 225.239 195.322C225.412 195.297 225.584 195.272 225.759 195.25C226.213 195.189 226.672 195.125 227.134 195.066C227.329 195.038 227.527 195.011 227.721 194.985C228.195 194.924 228.673 194.863 229.157 194.802C229.347 194.777 229.542 194.752 229.734 194.729C229.953 194.701 230.176 194.674 230.399 194.649C230.805 194.598 231.217 194.551 231.626 194.501C232.113 194.445 232.606 194.39 233.101 194.337C233.332 194.312 233.557 194.287 233.788 194.264C234.019 194.242 234.247 194.217 234.478 194.192C234.531 194.186 234.587 194.181 234.637 194.172C234.999 194.133 235.363 194.094 235.728 194.061C235.948 194.039 236.173 194.014 236.402 193.994C236.688 193.966 236.98 193.938 237.275 193.911C237.37 193.905 237.465 193.891 237.562 193.886C237.938 193.849 238.316 193.819 238.689 193.785C238.706 193.785 238.72 193.782 238.731 193.782C238.956 193.763 239.182 193.746 239.407 193.727C239.577 193.713 239.744 193.699 239.914 193.685C239.983 193.679 240.053 193.674 240.122 193.668C240.598 193.629 241.077 193.59 241.561 193.557C241.951 193.526 242.349 193.498 242.741 193.473C242.833 193.468 242.922 193.462 243.014 193.457C243.256 193.44 243.498 193.426 243.743 193.409H243.754C244.113 193.384 244.472 193.362 244.828 193.342C245.095 193.323 245.365 193.312 245.638 193.301C245.736 193.295 245.833 193.292 245.936 193.29C246.083 193.281 246.231 193.273 246.378 193.267C246.626 193.256 246.874 193.242 247.119 193.231H247.121L247.405 193.223C247.469 193.223 247.536 193.22 247.608 193.217C247.711 193.214 247.817 193.209 247.923 193.206C248.193 193.198 248.46 193.192 248.73 193.181C248.972 193.173 249.211 193.161 249.454 193.156C249.604 193.153 249.754 193.148 249.904 193.139C249.941 193.136 249.974 193.136 250.013 193.136C250.127 193.131 250.238 193.128 250.355 193.125C250.506 193.12 250.661 193.12 250.817 193.117C251.151 193.106 251.491 193.1 251.83 193.097C251.836 193.1 251.847 193.1 251.852 193.097C251.933 193.097 252.011 193.097 252.089 193.095C252.303 193.092 252.518 193.092 252.735 193.089C252.924 193.083 253.116 193.084 253.308 193.084C253.887 193.081 254.466 193.081 255.042 193.084C255.131 193.084 255.217 193.084 255.298 193.086C255.49 193.086 255.679 193.092 255.866 193.092C256.08 193.095 256.291 193.097 256.503 193.103H256.52C256.92 193.109 257.318 193.114 257.716 193.125C257.722 193.125 257.727 193.131 257.738 193.131C257.741 193.131 257.741 193.131 257.741 193.131C257.794 193.134 257.841 193.134 257.897 193.134C258.242 193.142 258.59 193.156 258.932 193.164C258.935 193.164 258.935 193.164 258.938 193.167C258.941 193.167 258.943 193.167 258.943 193.167C258.946 193.164 258.949 193.167 258.952 193.17C258.991 193.17 259.033 193.17 259.071 193.173H259.105C259.361 193.181 259.617 193.192 259.87 193.203C259.898 193.203 259.923 193.206 259.948 193.206C260.015 193.209 260.079 193.212 260.148 193.214C260.151 193.214 260.151 193.214 260.151 193.214C260.157 193.214 260.16 193.214 260.171 193.217C260.257 193.22 260.346 193.226 260.432 193.228C260.502 193.231 260.577 193.234 260.647 193.237C260.805 193.245 260.967 193.251 261.125 193.262C261.192 193.267 261.264 193.27 261.334 193.273C261.345 193.273 261.362 193.273 261.381 193.276C261.42 193.276 261.465 193.278 261.507 193.281C261.712 193.292 261.921 193.309 262.133 193.317C262.202 193.323 262.277 193.329 262.35 193.331C262.386 193.334 262.419 193.334 262.453 193.337C262.483 193.34 262.514 193.342 262.545 193.345H262.581C262.803 193.362 263.026 193.376 263.246 193.395C263.288 193.395 263.332 193.398 263.374 193.404C263.416 193.407 263.46 193.409 263.502 193.412C263.588 193.418 263.677 193.423 263.764 193.432C263.769 193.434 263.775 193.434 263.783 193.434C263.864 193.44 263.942 193.446 264.022 193.454C264.315 193.479 264.604 193.504 264.893 193.526C264.949 193.532 265.008 193.535 265.066 193.543C265.119 193.549 265.166 193.551 265.216 193.557C265.233 193.557 265.247 193.56 265.264 193.56H265.289C265.308 193.562 265.328 193.565 265.35 193.568C265.361 193.568 265.372 193.568 265.383 193.571C265.556 193.588 265.723 193.601 265.892 193.621C265.934 193.624 265.982 193.629 266.023 193.632C266.062 193.638 266.104 193.64 266.146 193.643C266.226 193.652 266.304 193.663 266.385 193.671C266.41 193.671 266.432 193.674 266.455 193.677C266.747 193.707 267.033 193.738 267.317 193.771C267.337 193.774 267.351 193.774 267.367 193.777C267.451 193.785 267.529 193.796 267.612 193.805C267.816 193.83 268.016 193.855 268.219 193.883C268.222 193.88 268.225 193.883 268.225 193.883C268.314 193.891 268.4 193.905 268.486 193.913C268.489 193.913 268.495 193.913 268.497 193.916C268.77 193.952 269.043 193.986 269.313 194.028C269.396 194.036 269.477 194.05 269.56 194.061C269.588 194.064 269.616 194.067 269.644 194.072C270.031 194.128 270.409 194.183 270.793 194.245C270.796 194.242 270.799 194.245 270.802 194.245C270.855 194.25 270.902 194.261 270.955 194.27C271.108 194.292 271.258 194.32 271.411 194.342C271.492 194.359 271.57 194.37 271.65 194.384C271.742 194.395 271.837 194.415 271.929 194.431C271.945 194.431 271.959 194.434 271.97 194.437C272.277 194.493 272.583 194.548 272.886 194.601C272.942 194.61 272.997 194.623 273.05 194.632C273.142 194.651 273.237 194.668 273.329 194.688C273.935 194.802 274.536 194.927 275.126 195.058C275.238 195.083 275.343 195.108 275.455 195.136C275.471 195.139 275.488 195.139 275.508 195.144C275.516 195.144 275.527 195.147 275.533 195.147C275.558 195.15 275.586 195.155 275.611 195.166C275.636 195.169 275.663 195.175 275.689 195.18C275.736 195.189 275.78 195.203 275.828 195.214C275.864 195.219 275.897 195.231 275.931 195.242C276.073 195.272 276.212 195.303 276.354 195.339C276.437 195.361 276.518 195.381 276.601 195.403C276.612 195.403 276.626 195.406 276.635 195.409C276.651 195.409 276.663 195.412 276.674 195.414C276.699 195.42 276.724 195.431 276.746 195.437C276.774 195.442 276.802 195.448 276.83 195.456C276.846 195.462 276.863 195.464 276.88 195.47C277.024 195.503 277.166 195.54 277.311 195.579C277.442 195.615 277.575 195.648 277.706 195.687C277.728 195.693 277.748 195.696 277.767 195.701C277.773 195.701 277.778 195.701 277.787 195.704C277.815 195.707 277.84 195.712 277.868 195.726C278.062 195.779 278.26 195.835 278.452 195.888C278.541 195.916 278.633 195.941 278.719 195.969C278.747 195.974 278.775 195.98 278.803 195.991C278.819 195.994 278.833 195.996 278.844 195.999C278.886 196.007 278.928 196.021 278.97 196.035C279.02 196.046 279.07 196.06 279.12 196.077C279.139 196.083 279.156 196.088 279.176 196.097C279.181 196.097 279.184 196.097 279.192 196.102C279.434 196.172 279.679 196.25 279.919 196.325C279.941 196.331 279.966 196.336 279.985 196.344C280.063 196.367 280.138 196.392 280.214 196.414C280.478 196.5 280.734 196.584 280.993 196.67C281.048 196.684 281.104 196.704 281.154 196.726C281.494 196.843 281.825 196.963 282.162 197.082V197.085C282.162 197.085 282.164 197.08 282.164 197.085C282.468 197.199 282.771 197.311 283.069 197.431C283.322 197.525 283.573 197.625 283.82 197.728C284.015 197.806 284.21 197.887 284.399 197.974C284.544 198.038 284.683 198.102 284.828 198.163C285.148 198.302 285.462 198.447 285.774 198.6C285.98 198.698 286.189 198.801 286.392 198.904C286.464 198.94 286.539 198.976 286.612 199.015C286.806 199.112 287.004 199.218 287.196 199.321C287.341 199.402 287.488 199.477 287.63 199.558C287.775 199.642 287.922 199.72 288.062 199.803C288.073 199.809 288.084 199.814 288.095 199.823C288.103 199.831 288.117 199.837 288.128 199.842C288.256 199.92 288.39 199.995 288.518 200.073C288.649 200.154 288.78 200.229 288.908 200.31C289.061 200.405 289.216 200.499 289.381 200.594C289.478 200.652 289.581 200.714 289.681 200.775C289.829 200.864 289.982 200.953 290.138 201.045C290.177 201.067 290.221 201.092 290.26 201.115C290.26 201.115 290.263 201.115 290.263 201.118C290.293 201.129 290.321 201.148 290.352 201.168C290.41 201.201 290.469 201.232 290.527 201.262C290.569 201.29 290.614 201.315 290.655 201.335C290.672 201.34 290.686 201.351 290.703 201.36C290.75 201.388 290.794 201.415 290.842 201.441C290.889 201.468 290.934 201.493 290.981 201.519C291.259 201.677 291.549 201.839 291.849 201.998C292.041 202.101 292.239 202.209 292.439 202.312C292.584 202.39 292.726 202.465 292.873 202.543C292.932 202.577 292.99 202.605 293.049 202.635C293.096 202.66 293.143 202.685 293.191 202.708C293.216 202.719 293.243 202.735 293.268 202.747C293.321 202.774 293.369 202.8 293.421 202.827C293.43 202.833 293.444 202.836 293.452 202.841L293.455 202.844C293.466 202.85 293.483 202.855 293.497 202.866C293.792 203.022 294.095 203.175 294.401 203.331C294.473 203.368 294.549 203.401 294.621 203.443C295.08 203.677 295.553 203.911 296.04 204.15C296.118 204.186 296.193 204.223 296.274 204.264C296.427 204.345 296.583 204.42 296.742 204.498C298.745 205.478 300.977 206.528 303.393 207.634C303.885 207.859 304.389 208.091 304.901 208.322C304.918 208.327 304.932 208.333 304.949 208.344C305.461 208.575 305.981 208.809 306.51 209.046C307.333 209.413 308.177 209.786 309.031 210.168C309.588 210.416 310.155 210.664 310.726 210.914C310.731 210.917 310.737 210.92 310.743 210.92C311.611 211.301 312.49 211.683 313.384 212.07C313.982 212.326 314.586 212.588 315.195 212.852C315.71 213.075 316.233 213.298 316.762 213.524C317.163 213.696 317.569 213.866 317.973 214.039C318.176 214.125 318.379 214.211 318.585 214.295C319.322 214.607 320.068 214.927 320.822 215.245C324.026 216.598 327.346 217.979 330.741 219.374C331.08 219.516 331.42 219.656 331.762 219.795C332.405 220.059 333.045 220.321 333.694 220.586C333.694 220.586 333.694 220.586 333.696 220.586C333.735 220.605 333.777 220.619 333.819 220.639C334.428 220.886 335.041 221.137 335.653 221.388C336.076 221.563 336.502 221.733 336.925 221.906C337.965 222.329 339.012 222.752 340.058 223.176C372.672 236.375 408.268 249.709 410.442 250.522C410.456 250.527 410.473 250.53 410.489 250.538C410.509 250.547 410.525 250.555 410.545 250.558C410.528 250.572 410.528 250.572 410.531 250.572Z" fill="#383860"/>
<path d="M482.699 481.795C482.387 482.695 482.117 483.296 481.622 484.522C476.084 498.259 455.531 524.101 389.094 567.627C388.359 568.109 387.619 568.588 386.876 569.078C386.164 569.54 385.446 570.008 384.722 570.473C382.326 572.024 378.931 574.207 374.578 576.597C374.183 576.817 373.779 577.034 373.368 577.254C370.217 578.941 366.605 580.718 362.539 582.431C360.919 583.113 359.341 583.742 357.802 584.321H357.8C353.519 585.925 349.57 587.145 346.058 588.078C343.818 588.22 341.581 588.345 339.349 588.457C339.955 586.858 340.562 585.224 341.163 583.558C341.745 581.968 342.318 580.345 342.886 578.694C344.391 574.344 345.875 569.788 347.3 565.031C347.539 564.246 347.773 563.458 348.004 562.664C348.224 561.915 348.441 561.163 348.658 560.409C349.662 556.894 350.586 553.453 351.441 550.097C351.986 547.93 352.504 545.803 352.991 543.709C353.993 539.42 354.869 535.282 355.643 531.311C355.69 531.08 355.737 530.846 355.779 530.612C355.79 530.598 355.804 530.584 355.815 530.567C360.393 525.221 364.966 520.364 369.494 515.769C374.856 510.325 380.144 505.248 385.276 500.152C396.58 488.927 407.116 477.607 415.98 462.076L415.988 462.063C416.99 460.303 417.973 458.49 418.933 456.616L418.73 456.228L389.386 399.999L387.207 395.824L385.974 393.469L384.741 391.107L355.996 336.025L371.531 253.265L387.736 245.214C388.17 245.225 388.66 245.242 389.205 245.275C389.205 245.275 391.245 245.398 393.508 245.785C395.545 246.133 401.951 247.765 410.47 250.55C410.487 250.558 410.506 250.563 410.523 250.569C410.526 250.572 410.526 250.572 410.531 250.572C428.554 282.31 442.196 310.213 452.108 331.942C492.926 421.422 492.063 454.897 482.699 481.795Z" fill="#383860"/>
<path d="M90.0176 258.589C68.6751 314.181 49.6369 358.545 35.9031 389.386C7.69502 452.726 -9.63444 486.669 5.74974 516.675C16.0188 536.702 37.7815 548.808 39.9077 549.961C57.8355 559.691 74.9897 560.484 92.9202 561.314C108.355 562.03 121.254 560.713 130.351 559.309C136.952 536.457 143.553 513.606 150.154 490.754C134.194 487.365 118.234 483.976 102.271 480.584C114.135 449.27 125.998 417.955 137.862 386.643L107.887 270.703L90.0176 258.589Z" fill="#383860"/>
<path d="M388.306 380.67C388.245 380.67 388.181 380.667 388.119 380.659C387.337 380.561 386.786 379.876 386.887 379.127C387.376 375.551 387.822 369.319 388.387 361.43C390.429 332.836 393.847 284.98 406.248 254.228C406.531 253.524 407.358 253.175 408.095 253.446C408.833 253.716 409.2 254.507 408.916 255.211C396.671 285.579 393.271 333.176 391.242 361.616C390.674 369.553 390.226 375.821 389.725 379.481C389.625 380.171 389.01 380.67 388.306 380.67Z" fill="#383860"/>
<path d="M131.736 404C131.09 404 130.541 403.5 130.482 402.835C127.355 368.307 101.848 284.689 90.1337 260.856C89.8229 260.221 90.0742 259.451 90.6984 259.135C91.3227 258.819 92.0793 259.075 92.3901 259.71C104.18 283.692 129.849 367.846 132.995 402.601C133.06 403.307 132.549 403.931 131.855 403.997C131.814 404 131.773 404 131.736 404Z" fill="#383860"/>
<path d="M437.905 460.629C437.262 460.629 436.703 460.15 436.62 459.495C436.528 458.782 437.032 458.131 437.741 458.042C447.156 456.83 456.738 456.44 466.214 456.878C466.932 456.911 467.485 457.518 467.452 458.237C467.419 458.955 466.817 459.501 466.094 459.476C456.765 459.041 447.337 459.426 438.072 460.62C438.017 460.626 437.961 460.629 437.905 460.629Z" fill="#383860"/>
<path d="M453.468 470.433C453.278 470.433 453.089 470.392 452.908 470.305L439.65 463.959C439.002 463.65 438.729 462.873 439.038 462.224C439.347 461.575 440.123 461.302 440.772 461.611L454.03 467.958C454.678 468.267 454.951 469.044 454.642 469.693C454.419 470.16 453.952 470.433 453.468 470.433Z" fill="#383860"/>
<path d="M99.4213 480.885C99.2182 480.974 98.99 481.01 98.7534 480.982C79.3868 478.649 59.1909 480.083 40.3475 485.132C39.6546 485.318 38.9421 484.906 38.7557 484.213C38.5692 483.519 38.9839 482.801 39.6741 482.62C58.8347 477.487 79.3701 476.028 99.0623 478.401C99.7747 478.487 100.284 479.133 100.198 479.846C100.142 480.322 99.8332 480.707 99.4213 480.885Z" fill="#383860"/>
<path d="M92.9566 475.613C92.6866 475.73 92.3777 475.755 92.0772 475.666C84.5493 473.45 76.4731 472.907 68.717 474.096C68.0074 474.204 67.345 473.717 67.2365 473.007C67.128 472.297 67.6122 471.634 68.3246 471.525C76.4537 470.278 84.9222 470.849 92.8119 473.171C93.4993 473.374 93.8944 474.096 93.6913 474.786C93.5744 475.17 93.2989 475.466 92.9566 475.613Z" fill="#383860"/>
<path d="M330.404 289.16L350.001 314.543C350.001 314.543 311.958 480.091 279.676 478.938C247.394 477.785 190.034 350.308 190.034 350.308L205.307 299.542L177.636 294.927L175.012 214.097C192.149 205.258 206.66 198.372 212.802 197.3C230.098 194.272 269.293 188.218 288.896 200.327C296.719 205.166 317.677 214.147 340.036 223.189L349.999 279.931L330.404 289.16Z" fill="#4F4F83"/>
<path d="M305.483 285.71C302.795 350.544 287.163 438.559 287.163 438.559L276.067 448.946L205.403 199.633C208.494 198.425 211.002 197.617 212.808 197.305C230.101 194.275 269.299 188.218 288.905 200.321C290.113 201.076 291.646 201.933 293.439 202.855C294.997 206.197 296.478 209.797 297.83 213.66C300.727 221.85 303.065 231.212 304.456 241.858C306.001 253.624 306.171 268.887 305.483 285.71Z" fill="#2E294E"/>
<path d="M284.204 276.097V297.147C284.204 304.863 278.412 311.346 270.751 312.212C263.955 312.981 257.49 309.099 254.966 302.741L245.779 279.583L262.51 253.359L284.204 276.097Z" fill="#4F4F83"/>
<path d="M165.435 454.266L158.426 463.119L220.228 512.116L227.237 503.263L165.435 454.266Z" fill="white"/>
<path d="M305.483 285.71L304.456 297.333L262.517 253.351L295.425 216.339L297.83 213.66C300.727 221.85 303.065 231.212 304.456 241.858C306.001 253.624 306.17 268.887 305.483 285.71Z" fill="#2E294E"/>
<path d="M261.397 306.044L250.277 561.428L314.262 551.62L278.521 304.159L261.397 306.044Z" fill="#4F4F83"/>
<path d="M142.025 554.21C135.032 560.509 131.169 559.643 130.354 559.309C127.215 558.034 125.138 554.976 123.992 550.827C119.311 533.865 125.038 512.976 136.885 499.078C144.778 489.818 149.211 490.548 150.157 490.757C151.265 491.002 153.683 491.874 156.107 496.418C164.105 511.42 157.988 539.835 142.025 554.21Z" fill="#3D3638"/>
<path d="M144.332 501.328C141.794 500.788 139.294 500.038 136.882 499.078C126.178 512.481 120.259 537.396 123.988 550.827C129.977 552.108 136.038 553.035 142.022 554.21C143.469 554.491 144.91 554.792 146.347 555.112C140.536 537.769 138.535 518.443 144.332 501.328Z" fill="#E07B57"/>
<path d="M249.609 514.689C246.695 509.125 238.728 506.29 233.279 503.973C227.137 501.369 220.764 499.375 214.369 497.496C202.533 494.023 190.346 488.696 177.912 487.78C174.052 487.498 168.745 487.209 165.494 489.514C163.19 491.146 161.014 493.405 158.863 495.563C157.875 496.563 156.887 497.54 155.904 498.42C154.346 499.815 152.698 501.249 150.672 501.748C149.17 502.121 147.597 501.934 146.072 501.675C145.49 501.575 144.912 501.45 144.333 501.327C138.536 518.442 140.54 537.769 146.35 555.112C151.524 556.262 156.608 557.707 161.498 559.852C170.359 563.731 179.718 566.46 189.269 567.969C199.232 569.545 207.698 568.624 217.6 567.145C222.662 566.393 227.596 567.084 230.774 562.277C231.729 560.826 232.288 558.949 231.642 557.334C231.039 555.808 229.48 554.825 227.883 554.483C226.55 554.19 225.929 553.753 224.83 553.725C227.064 553.622 229.316 553.461 231.439 552.77C233.794 552.001 236.023 550.478 237.078 548.228C238.132 545.986 237.726 542.976 235.75 541.472C233.905 540.072 230.76 540.84 229.23 539.094C232.533 538.802 235.959 538.468 238.792 536.744C241.619 535.02 243.623 531.464 242.482 528.356C241.5 525.68 238.898 522.472 236.126 521.826C239.897 522.491 243.871 521.962 247.336 520.33C248.301 519.874 249.272 519.292 249.779 518.359C250.394 517.242 250.202 515.819 249.609 514.689Z" fill="#FFA383"/>
<path d="M236.131 523.13C235.998 523.13 235.861 523.107 235.728 523.066C219.559 517.761 202.463 515.394 187.869 513.776C187.157 513.698 186.642 513.054 186.72 512.342C186.8 511.629 187.457 511.119 188.153 511.191C202.878 512.823 220.14 515.215 236.535 520.596C237.216 520.818 237.587 521.553 237.364 522.236C237.186 522.782 236.677 523.13 236.131 523.13Z" fill="#CC704F"/>
<path d="M229.235 540.395C229.182 540.395 229.129 540.392 229.073 540.387C222.136 539.532 214.994 538.78 208.087 538.056C201.169 537.329 194.017 536.577 187.056 535.719C186.344 535.63 185.837 534.981 185.927 534.271C186.016 533.558 186.672 533.06 187.374 533.141C194.312 533.996 201.453 534.747 208.357 535.471C215.276 536.198 222.431 536.95 229.391 537.808C230.103 537.897 230.61 538.546 230.521 539.256C230.44 539.913 229.881 540.395 229.235 540.395Z" fill="#CC704F"/>
<path d="M205.398 199.636L262.51 253.356L233.514 298.815L205.398 199.636Z" fill="#2E294E"/>
<path d="M235.604 298.722C235.379 298.722 235.151 298.659 234.946 298.53C234.377 298.166 234.209 297.41 234.574 296.838L261.892 254.012C262.094 253.695 262.432 253.49 262.804 253.453C263.179 253.414 263.549 253.556 263.809 253.826L304.661 296.652C305.128 297.14 305.11 297.916 304.622 298.383C304.132 298.85 303.358 298.832 302.892 298.344L263.116 256.646L236.637 298.158C236.404 298.522 236.011 298.722 235.604 298.722Z" fill="#383860"/>
<path d="M212.92 199.106C215.862 190.969 218.7 181.281 220.71 170.215C223.648 154.038 223.943 139.733 223.331 128.396C233.18 119.696 243.981 111.047 246.33 113.063C247.507 114.074 245.689 117.031 245.291 120.785C243.997 132.916 258.627 142.893 265.226 149.22C273.82 157.463 282.483 172.643 282.221 203.128C274.752 219.633 267.282 236.138 259.813 252.643C244.181 234.798 228.552 216.954 212.92 199.106Z" fill="#AA658A"/>
<path d="M209.007 153.061C204.816 153.219 199.84 152.996 197.552 149.477C195.552 146.397 196.971 142.84 197.168 139.51C197.399 135.608 198.234 131.788 198.791 127.906C200.029 119.251 200.681 110.523 201.09 101.796C201.841 85.8338 201.78 69.8354 203.01 53.8955C203.928 42.0214 204.426 28.9386 211.336 18.6963C217.158 10.0635 227.027 4.94518 237.393 6.61046C245.149 7.85524 252.179 12.5615 256.76 18.9441C256.949 10.782 264.14 3.65027 272.005 1.48095C279.872 -0.685588 288.257 0.768053 296.166 2.7675C309.31 6.08971 322.151 10.9268 333.697 18.0363C342.38 23.383 350.646 30.5036 353.899 40.1695C357.572 51.0913 354.199 63.0184 350.431 73.9068C347.351 82.8012 343.93 91.7375 338.267 99.2563C332.604 106.772 324.361 112.804 315.01 113.826C290.122 116.547 267.914 126.892 245.344 137.736C233.522 143.425 222.115 152.565 209.007 153.061Z" fill="#3B0E25"/>
<path d="M301.848 187.255C298.656 192.289 295.227 199.861 289.272 201.46C277.291 204.693 261.008 203.651 250.7 196.052C239.334 187.678 229.572 175.277 221.824 163.601C217.58 157.19 216.414 153.629 216.573 146.015C216.712 139.095 217.797 132.242 218.479 125.369C220.399 106.051 223.335 86.8309 227.902 67.967C230.326 57.8946 235.655 46.1178 245.727 43.684C247.035 43.3721 248.351 43.0769 249.662 42.8235C275.852 37.6271 303.927 43.088 326.591 57.2346C328.434 66.1653 329.319 75.2937 329.221 84.4054C329.14 93.389 326.992 102.345 325.292 111.17C321.908 128.677 317.658 146.029 312.54 163.108C312.031 164.837 311.494 166.567 310.962 168.285C308.869 175.018 305.636 181.315 301.848 187.255Z" fill="#AA658A"/>
<path d="M296.897 177.257C299.346 170.524 298.124 162.573 293.763 156.889C288.701 150.287 280.185 147.694 272.128 148.468C263.927 149.256 256.274 154.408 252.45 161.71C251.454 163.612 253.266 165.071 254.663 166.697C256.06 168.324 257.908 169.493 259.722 170.635C261.28 171.615 262.864 172.609 264.639 173.1C266.412 173.59 268.433 173.514 269.947 172.467C272.337 170.81 272.718 167.419 274.53 165.141C275.582 163.818 277.182 162.891 278.872 162.857C280.561 162.824 282.281 163.785 282.96 165.33C284.404 168.627 280.884 172.325 281.699 175.831C282.295 178.388 285.114 179.914 287.735 179.917C290.357 179.919 294.531 178.391 296.897 177.257Z" fill="#AA658A"/>
<path d="M294.844 160.292C284.948 159.841 275.146 157.402 266.188 153.169C266.341 159.995 271.116 166.976 277.743 168.613C284.369 170.251 291.527 166.26 294.844 160.292Z" fill="white"/>
<path d="M289.421 139.83C289.552 139.866 289.689 139.88 289.831 139.869C293.718 139.607 297.542 138.789 301.196 137.435C302.59 136.92 304.271 136.107 304.9 134.411C305.782 132.03 304.015 129.841 302.958 128.533C298.811 123.403 295.881 117.279 294.489 110.83C294.342 110.15 293.674 109.719 292.995 109.866C292.316 110.014 291.884 110.682 292.032 111.362C293.507 118.196 296.61 124.678 301.004 130.114C301.934 131.267 302.899 132.576 302.543 133.537C302.27 134.275 301.213 134.748 300.322 135.077C296.896 136.347 293.309 137.115 289.661 137.36C288.968 137.408 288.445 138.006 288.492 138.7C288.531 139.251 288.918 139.694 289.421 139.83Z" fill="#8C496C"/>
<path d="M279.837 88.4236C279.631 91.8767 273.851 88.0922 265.83 87.6133C257.81 87.1315 250.588 90.1362 250.794 86.6859C251 83.2328 257.874 77.4071 265.894 77.8861C273.912 78.3623 280.043 84.9705 279.837 88.4236Z" fill="#3B0E25"/>
<path d="M329.138 93.1801C328.932 96.6332 323.151 92.8487 315.131 92.3698C307.11 91.888 299.886 94.8927 300.095 91.4424C300.301 87.9893 307.174 82.1636 315.195 82.6426C323.215 83.1216 329.346 89.727 329.138 93.1801Z" fill="#3B0E25"/>
<path d="M272.423 108.17C272.172 111.531 270.13 114.116 267.862 113.946C265.593 113.776 263.96 110.913 264.21 107.555C264.461 104.194 266.503 101.609 268.772 101.779C271.037 101.946 272.673 104.809 272.423 108.17Z" fill="#3B0E25"/>
<path d="M313.502 112.554C313.753 109.194 312.118 106.332 309.849 106.162C307.581 105.992 305.538 108.579 305.287 111.939C305.036 115.299 306.671 118.161 308.939 118.331C311.208 118.5 313.25 115.914 313.502 112.554Z" fill="#3B0E25"/>
<path d="M220.75 121.384C229.071 118.763 233.202 108.329 229.978 98.0795C226.753 87.8302 217.393 81.6465 209.072 84.268C200.751 86.8895 196.62 97.3234 199.845 107.573C203.07 117.822 212.43 124.006 220.75 121.384Z" fill="#AA658A"/>
<path d="M272.888 393.465L184.894 582.659L358.82 583.661L448.228 393.465H272.888Z" fill="#ABD661"/>
<path d="M447.591 391.104H272.248C271.33 391.104 270.498 391.636 270.111 392.469L181.663 582.639L186.851 582.67L273.754 395.824H447.591C448.894 395.824 449.948 394.769 449.948 393.466C449.948 392.162 448.894 391.104 447.591 391.104Z" fill="#407053"/>
<path d="M392.084 512.413C393.253 514.198 394.483 516.393 395.546 518.999C397.572 523.964 398.207 528.481 398.376 531.737C397.057 527.025 396.437 525.699 396.144 525.755C395.977 525.786 396.033 526.231 395.772 526.379C395.282 526.654 393.464 524.741 391.806 522.163C391.16 521.155 390.323 519.712 389.529 517.852C390.381 516.036 391.233 514.226 392.084 512.413Z" fill="#FFA383"/>
<path d="M388.944 519.907L359.931 513.741C356.286 512.967 352.554 514.621 350.678 517.846C348.042 522.377 350.018 528.194 354.869 530.18L380.007 540.478C384.922 542.491 390.663 541.865 394.724 538.437C397.226 536.323 399.04 533.274 398.189 528.971C397.281 524.379 393.521 520.879 388.944 519.907Z" fill="#FFA383"/>
<path d="M382.28 538.286L347.841 529.267C343.514 528.133 339.284 529.609 337.358 532.923C334.647 537.585 337.436 544.006 343.271 546.543L373.519 559.69C379.433 562.26 386.098 562.057 390.565 558.704C393.32 556.635 395.19 553.502 393.841 548.802C392.399 543.784 387.713 539.709 382.28 538.286Z" fill="#FFA383"/>
<path d="M361.085 529.308C361.216 529.331 361.344 529.384 361.472 529.445C376.45 536.368 372.356 534.909 386.432 539.077C387.12 539.281 387.512 540.005 387.309 540.692C387.106 541.38 386.368 541.765 385.695 541.57C371.488 537.365 375.426 538.732 360.239 531.734C359.588 531.433 359.371 530.606 359.71 529.974C359.986 529.464 360.548 529.211 361.085 529.308Z" fill="#CC704F"/>
</svg>
