<svg width="73" height="117" viewBox="0 0 73 117" fill="none" xmlns="http://www.w3.org/2000/svg">
<path d="M37.0001 0.803162C37.0001 0.803162 17.9685 18.8429 21.0001 32.3032C23.7969 44.7216 35 56.3032 45.5001 56.3032C51.0949 56.3032 56.7251 52.8005 58.0001 46.8032C59.5944 39.3032 52.9231 31.4124 45.5001 32.3032C33.0001 33.8032 26.221 39.8322 24 49.3032C23.5932 51.0379 23.7777 53.1135 24.318 55.3032" stroke="#C6C7D4" stroke-width="1.4" stroke-linecap="round" stroke-dasharray="2 2"/>
<path fill-rule="evenodd" clip-rule="evenodd" d="M70.0751 96.3875C70.0751 107.722 62.5869 114.402 49.8795 114.402H22.228C9.48826 114.402 2 107.722 2 96.3875V71.6938C2 60.3591 6.66801 53.6796 19.3754 53.6796H26.4746C29.0255 53.6796 31.4275 54.7509 32.958 56.5712L36.1996 60.4169C37.7335 62.2336 40.1333 63.3039 42.683 63.3084H52.7322C65.4719 63.3084 70.1724 69.0915 70.1724 80.6576L70.0751 96.3875Z" stroke="#2F3367" stroke-width="4" stroke-linecap="round" stroke-linejoin="round"/>
<path d="M18.9869 92.3683H53.0569" stroke="#2F3367" stroke-width="4" stroke-linecap="round" stroke-linejoin="round"/>
<path d="M53.2917 33.0208C53.2917 35.1724 51.5474 36.9167 49.3958 36.9167C47.2442 36.9167 45.5 35.1724 45.5 33.0208C45.5 30.8692 47.2442 29.125 49.3958 29.125C51.5474 29.125 53.2917 30.8692 53.2917 33.0208Z" fill="#616489"/>
<path d="M42.6666 33.0209C42.6666 34.3901 41.5567 35.5 40.1875 35.5C38.8183 35.5 37.7083 34.3901 37.7083 33.0209C37.7083 31.6516 38.8183 30.5417 40.1875 30.5417C41.5567 30.5417 42.6666 31.6516 42.6666 33.0209Z" fill="#323669"/>
<path d="M46.2084 39.0416C46.2084 40.6065 44.9398 41.875 43.375 41.875C41.8102 41.875 40.5417 40.6065 40.5417 39.0416C40.5417 37.4768 41.8102 36.2083 43.375 36.2083C44.9398 36.2083 46.2084 37.4768 46.2084 39.0416Z" fill="#323669"/>
</svg>
